<?xml version="1.0" encoding="UTF-8" standalone="no"?><svg xmlns="http://www.w3.org/2000/svg" xmlns:xlink="http://www.w3.org/1999/xlink" contentStyleType="text/css" height="602px" preserveAspectRatio="none" style="width:791px;height:602px;background:#F0FFFF;" version="1.1" viewBox="0 0 791 602" width="791px" zoomAndPan="magnify"><defs/><g><rect fill="#00BFFF" height="590.2963" style="stroke:#181818;stroke-width:0.5;" width="507.4063" x="135.2188" y="6"/><text fill="#000000" font-family="&quot;Helvetica&quot;" font-size="13" font-weight="bold" lengthAdjust="spacing" textLength="118.0938" x="329.875" y="19.897">networkd-broker</text><rect fill="#FFFFFF" height="359.0602" style="stroke:#181818;stroke-width:1.0;" width="10" x="181.2188" y="192.5301"/><rect fill="#FFFFFF" height="158.5301" style="stroke:#181818;stroke-width:1.0;" width="10" x="186.2188" y="274.9421"/><rect fill="#FFFFFF" height="31.706" style="stroke:#181818;stroke-width:1.0;" width="10" x="321.625" y="306.6481"/><rect fill="#FFFFFF" height="31.706" style="stroke:#181818;stroke-width:1.0;" width="10" x="444.625" y="370.0602"/><rect fill="#FFFFFF" height="403.7662" style="stroke:#181818;stroke-width:1.0;" width="10" x="578.625" y="147.8241"/><rect fill="#FFFFFF" height="31.706" style="stroke:#181818;stroke-width:1.0;" width="10" x="723.0313" y="510.8842"/><line style="stroke:#181818;stroke-width:0.5;stroke-dasharray:5.0,5.0;" x1="49" x2="49" y1="60.412" y2="560.5902"/><line style="stroke:#181818;stroke-width:0.5;stroke-dasharray:5.0,5.0;" x1="186.2188" x2="186.2188" y1="60.412" y2="560.5902"/><line style="stroke:#181818;stroke-width:0.5;stroke-dasharray:5.0,5.0;" x1="326.625" x2="326.625" y1="60.412" y2="560.5902"/><line style="stroke:#181818;stroke-width:0.5;stroke-dasharray:5.0,5.0;" x1="449.625" x2="449.625" y1="60.412" y2="560.5902"/><line style="stroke:#181818;stroke-width:0.5;stroke-dasharray:5.0,5.0;" x1="583.625" x2="583.625" y1="60.412" y2="560.5902"/><line style="stroke:#181818;stroke-width:0.5;stroke-dasharray:5.0,5.0;" x1="727.3125" x2="727.3125" y1="60.412" y2="560.5902"/><rect fill="#E2E2F0" height="31.706" rx="2.5" ry="2.5" style="stroke:#181818;stroke-width:0.5;" width="49.625" x="25" y="27.706"/><text fill="#000000" font-family="&quot;Helvetica&quot;" font-size="13" font-weight="bold" lengthAdjust="spacing" textLength="35.625" x="32" y="48.603">DBus</text><rect fill="#E2E2F0" height="31.706" rx="2.5" ry="2.5" style="stroke:#181818;stroke-width:0.5;" width="49.625" x="25" y="559.5902"/><text fill="#000000" font-family="&quot;Helvetica&quot;" font-size="13" font-weight="bold" lengthAdjust="spacing" textLength="35.625" x="32" y="580.4873">DBus</text><rect fill="#E2E2F0" height="31.706" rx="2.5" ry="2.5" style="stroke:#181818;stroke-width:0.5;" width="54" x="159.2188" y="27.706"/><text fill="#000000" font-family="&quot;Helvetica&quot;" font-size="13" lengthAdjust="spacing" textLength="40" x="166.2188" y="48.603">Broker</text><rect fill="#E2E2F0" height="31.706" rx="2.5" ry="2.5" style="stroke:#181818;stroke-width:0.5;" width="54" x="159.2188" y="559.5902"/><text fill="#000000" font-family="&quot;Helvetica&quot;" font-size="13" lengthAdjust="spacing" textLength="40" x="166.2188" y="580.4873">Broker</text><rect fill="#E2E2F0" height="31.706" rx="2.5" ry="2.5" style="stroke:#181818;stroke-width:0.5;" width="48" x="302.625" y="27.706"/><text fill="#000000" font-family="&quot;Helvetica&quot;" font-size="13" lengthAdjust="spacing" textLength="34" x="309.625" y="48.603">Script</text><rect fill="#E2E2F0" height="31.706" rx="2.5" ry="2.5" style="stroke:#181818;stroke-width:0.5;" width="48" x="302.625" y="559.5902"/><text fill="#000000" font-family="&quot;Helvetica&quot;" font-size="13" lengthAdjust="spacing" textLength="34" x="309.625" y="580.4873">Script</text><rect fill="#E2E2F0" height="31.706" rx="2.5" ry="2.5" style="stroke:#181818;stroke-width:0.5;" width="98" x="400.625" y="27.706"/><text fill="#000000" font-family="&quot;Helvetica&quot;" font-size="13" lengthAdjust="spacing" textLength="84" x="407.625" y="48.603">Environments</text><rect fill="#E2E2F0" height="31.706" rx="2.5" ry="2.5" style="stroke:#181818;stroke-width:0.5;" width="98" x="400.625" y="559.5902"/><text fill="#000000" font-family="&quot;Helvetica&quot;" font-size="13" lengthAdjust="spacing" textLength="84" x="407.625" y="580.4873">Environments</text><rect fill="#E2E2F0" height="31.706" rx="2.5" ry="2.5" style="stroke:#181818;stroke-width:0.5;" width="70" x="548.625" y="27.706"/><text fill="#000000" font-family="&quot;Helvetica&quot;" font-size="13" lengthAdjust="spacing" textLength="56" x="555.625" y="48.603">Launcher</text><rect fill="#E2E2F0" height="31.706" rx="2.5" ry="2.5" style="stroke:#181818;stroke-width:0.5;" width="70" x="548.625" y="559.5902"/><text fill="#000000" font-family="&quot;Helvetica&quot;" font-size="13" lengthAdjust="spacing" textLength="56" x="555.625" y="580.4873">Launcher</text><rect fill="#E2E2F0" height="31.706" rx="2.5" ry="2.5" style="stroke:#181818;stroke-width:0.5;" width="63.4375" x="696.3125" y="27.706"/><text fill="#000000" font-family="&quot;Helvetica&quot;" font-size="13" font-weight="bold" lengthAdjust="spacing" textLength="49.4375" x="703.3125" y="48.603">System</text><rect fill="#E2E2F0" height="31.706" rx="2.5" ry="2.5" style="stroke:#181818;stroke-width:0.5;" width="63.4375" x="696.3125" y="559.5902"/><text fill="#000000" font-family="&quot;Helvetica&quot;" font-size="13" font-weight="bold" lengthAdjust="spacing" textLength="49.4375" x="703.3125" y="580.4873">System</text><rect fill="#FFFFFF" height="359.0602" style="stroke:#181818;stroke-width:1.0;" width="10" x="181.2188" y="192.5301"/><rect fill="#FFFFFF" height="158.5301" style="stroke:#181818;stroke-width:1.0;" width="10" x="186.2188" y="274.9421"/><rect fill="#FFFFFF" height="31.706" style="stroke:#181818;stroke-width:1.0;" width="10" x="321.625" y="306.6481"/><rect fill="#FFFFFF" height="31.706" style="stroke:#181818;stroke-width:1.0;" width="10" x="444.625" y="370.0602"/><rect fill="#FFFFFF" height="403.7662" style="stroke:#181818;stroke-width:1.0;" width="10" x="578.625" y="147.8241"/><rect fill="#FFFFFF" height="31.706" style="stroke:#181818;stroke-width:1.0;" width="10" x="723.0313" y="510.8842"/><rect fill="#EEEEEE" height="3" style="stroke:#EEEEEE;stroke-width:1.0;" width="784.75" x="0" y="92.265"/><line style="stroke:#000000;stroke-width:1.0;" x1="0" x2="784.75" y1="92.265" y2="92.265"/><line style="stroke:#000000;stroke-width:1.0;" x1="0" x2="784.75" y1="95.265" y2="95.265"/><rect fill="#EEEEEE" height="25.706" style="stroke:#000000;stroke-width:2.0;" width="107.6875" x="338.5313" y="80.412"/><text fill="#000000" font-family="&quot;Helvetica&quot;" font-size="13" font-weight="bold" lengthAdjust="spacing" textLength="90.6875" x="344.5313" y="98.309">Initialization</text><line style="stroke:#181818;stroke-width:1.0;" x1="583.625" x2="630.625" y1="134.8241" y2="134.8241"/><line style="stroke:#181818;stroke-width:1.0;" x1="630.625" x2="630.625" y1="134.8241" y2="147.8241"/><line style="stroke:#181818;stroke-width:1.0;" x1="589.625" x2="630.625" y1="147.8241" y2="147.8241"/><line style="stroke:#181818;stroke-width:1.0;" x1="589.625" x2="599.625" y1="147.8241" y2="143.8241"/><line style="stroke:#181818;stroke-width:1.0;" x1="589.625" x2="599.625" y1="147.8241" y2="151.8241"/><text fill="#000000" font-family="&quot;Helvetica&quot;" font-size="13" font-weight="bold" lengthAdjust="spacing" textLength="7.4063" x="595.625" y="129.0151">1</text><text fill="#000000" font-family="&quot;Helvetica&quot;" font-size="13" lengthAdjust="spacing" textLength="119" x="607.0313" y="129.0151">receive script queue</text><line style="stroke:#181818;stroke-width:1.0;" x1="186.2188" x2="233.2188" y1="179.5301" y2="179.5301"/><line style="stroke:#181818;stroke-width:1.0;" x1="233.2188" x2="233.2188" y1="179.5301" y2="192.5301"/><line style="stroke:#181818;stroke-width:1.0;" x1="192.2188" x2="233.2188" y1="192.5301" y2="192.5301"/><line style="stroke:#181818;stroke-width:1.0;" x1="192.2188" x2="202.2188" y1="192.5301" y2="188.5301"/><line style="stroke:#181818;stroke-width:1.0;" x1="192.2188" x2="202.2188" y1="192.5301" y2="196.5301"/><text fill="#000000" font-family="&quot;Helvetica&quot;" font-size="13" font-weight="bold" lengthAdjust="spacing" textLength="7.4063" x="198.2188" y="173.7211">2</text><text fill="#000000" font-family="&quot;Helvetica&quot;" font-size="13" lengthAdjust="spacing" textLength="115" x="209.625" y="173.7211">listen to link events</text><rect fill="#EEEEEE" height="3" style="stroke:#EEEEEE;stroke-width:1.0;" width="784.75" x="0" y="227.3831"/><line style="stroke:#000000;stroke-width:1.0;" x1="0" x2="784.75" y1="227.3831" y2="227.3831"/><line style="stroke:#000000;stroke-width:1.0;" x1="0" x2="784.75" y1="230.3831" y2="230.3831"/><rect fill="#EEEEEE" height="25.706" style="stroke:#000000;stroke-width:2.0;" width="116.2813" x="334.2344" y="215.5301"/><text fill="#000000" font-family="&quot;Helvetica&quot;" font-size="13" font-weight="bold" lengthAdjust="spacing" textLength="99.2813" x="340.2344" y="233.4271">Receive Signal</text><polygon fill="#181818" points="174.2188,270.9421,184.2188,274.9421,174.2188,278.9421,178.2188,274.9421" style="stroke:#181818;stroke-width:1.0;"/><line style="stroke:#181818;stroke-width:1.0;" x1="49.8125" x2="180.2188" y1="274.9421" y2="274.9421"/><text fill="#000000" font-family="&quot;Helvetica&quot;" font-size="13" font-weight="bold" lengthAdjust="spacing" textLength="7.4063" x="56.8125" y="269.1331">3</text><text fill="#000000" font-family="&quot;Helvetica&quot;" font-size="13" lengthAdjust="spacing" textLength="96" x="68.2188" y="269.1331">link event signal</text><polygon fill="#181818" points="309.625,302.6481,319.625,306.6481,309.625,310.6481,313.625,306.6481" style="stroke:#181818;stroke-width:1.0;"/><line style="stroke:#181818;stroke-width:1.0;" x1="196.2188" x2="315.625" y1="306.6481" y2="306.6481"/><text fill="#000000" font-family="&quot;Helvetica&quot;" font-size="13" font-weight="bold" lengthAdjust="spacing" textLength="7.4063" x="203.2188" y="300.8391">4</text><text fill="#000000" font-family="&quot;Helvetica&quot;" font-size="13" lengthAdjust="spacing" textLength="76" x="214.625" y="300.8391">get script list</text><polygon fill="#181818" points="207.2188,334.3541,197.2188,338.3541,207.2188,342.3541,203.2188,338.3541" style="stroke:#181818;stroke-width:1.0;"/><line style="stroke:#181818;stroke-width:1.0;stroke-dasharray:2.0,2.0;" x1="201.2188" x2="325.625" y1="338.3541" y2="338.3541"/><text fill="#000000" font-family="&quot;Helvetica&quot;" font-size="13" font-weight="bold" lengthAdjust="spacing" textLength="7.4063" x="213.2188" y="332.5451">5</text><text fill="#000000" font-family="&quot;Helvetica&quot;" font-size="13" lengthAdjust="spacing" textLength="53" x="224.625" y="332.5451">script list</text><polygon fill="#181818" points="432.625,366.0602,442.625,370.0602,432.625,374.0602,436.625,370.0602" style="stroke:#181818;stroke-width:1.0;"/><line style="stroke:#181818;stroke-width:1.0;" x1="196.2188" x2="438.625" y1="370.0602" y2="370.0602"/><text fill="#000000" font-family="&quot;Helvetica&quot;" font-size="13" font-weight="bold" lengthAdjust="spacing" textLength="7.4063" x="203.2188" y="364.2512">6</text><text fill="#000000" font-family="&quot;Helvetica&quot;" font-size="13" lengthAdjust="spacing" textLength="55" x="214.625" y="364.2512">fetch env</text><polygon fill="#181818" points="207.2188,397.7662,197.2188,401.7662,207.2188,405.7662,203.2188,401.7662" style="stroke:#181818;stroke-width:1.0;"/><line style="stroke:#181818;stroke-width:1.0;stroke-dasharray:2.0,2.0;" x1="201.2188" x2="448.625" y1="401.7662" y2="401.7662"/><text fill="#000000" font-family="&quot;Helvetica&quot;" font-size="13" font-weight="bold" lengthAdjust="spacing" textLength="7.4063" x="213.2188" y="395.9572">7</text><text fill="#000000" font-family="&quot;Helvetica&quot;" font-size="13" lengthAdjust="spacing" textLength="22" x="224.625" y="395.9572">env</text><polygon fill="#181818" points="566.625,429.4722,576.625,433.4722,566.625,437.4722,570.625,433.4722" style="stroke:#181818;stroke-width:1.0;"/><line style="stroke:#181818;stroke-width:1.0;" x1="191.2188" x2="572.625" y1="433.4722" y2="433.4722"/><text fill="#000000" font-family="&quot;Helvetica&quot;" font-size="13" font-weight="bold" lengthAdjust="spacing" textLength="7.4063" x="198.2188" y="427.6632">8</text><text fill="#000000" font-family="&quot;Helvetica&quot;" font-size="13" lengthAdjust="spacing" textLength="142" x="209.625" y="427.6632">send script list to queue</text><rect fill="#EEEEEE" height="3" style="stroke:#EEEEEE;stroke-width:1.0;" width="784.75" x="0" y="463.3252"/><line style="stroke:#000000;stroke-width:1.0;" x1="0" x2="784.75" y1="463.3252" y2="463.3252"/><line style="stroke:#000000;stroke-width:1.0;" x1="0" x2="784.75" y1="466.3252" y2="466.3252"/><rect fill="#EEEEEE" height="25.706" style="stroke:#000000;stroke-width:2.0;" width="165.3125" x="309.7188" y="451.4722"/><text fill="#000000" font-family="&quot;Helvetica&quot;" font-size="13" font-weight="bold" lengthAdjust="spacing" textLength="148.3125" x="315.7188" y="469.3692">Execute Script Queue</text><line style="stroke:#181818;stroke-width:1.0;" x1="721.0313" x2="711.0313" y1="510.8842" y2="506.8842"/><line style="stroke:#181818;stroke-width:1.0;" x1="721.0313" x2="711.0313" y1="510.8842" y2="514.8842"/><line style="stroke:#181818;stroke-width:1.0;" x1="588.625" x2="722.0313" y1="510.8842" y2="510.8842"/><text fill="#000000" font-family="&quot;Helvetica&quot;" font-size="13" font-weight="bold" lengthAdjust="spacing" textLength="7.4063" x="595.625" y="505.0752">9</text><text fill="#000000" font-family="&quot;Helvetica&quot;" font-size="13" lengthAdjust="spacing" textLength="83" x="607.0313" y="505.0752">execute script</text><line style="stroke:#181818;stroke-width:1.0;" x1="588.625" x2="598.625" y1="542.5902" y2="538.5902"/><line style="stroke:#181818;stroke-width:1.0;" x1="588.625" x2="598.625" y1="542.5902" y2="546.5902"/><line style="stroke:#181818;stroke-width:1.0;stroke-dasharray:2.0,2.0;" x1="588.625" x2="727.0313" y1="542.5902" y2="542.5902"/><text fill="#000000" font-family="&quot;Helvetica&quot;" font-size="13" font-weight="bold" lengthAdjust="spacing" textLength="14.8125" x="605.625" y="536.7812">10</text><text fill="#000000" font-family="&quot;Helvetica&quot;" font-size="13" lengthAdjust="spacing" textLength="31" x="624.4375" y="536.7812">done</text></g></svg>