<?xml version="1.0" encoding="UTF-8" standalone="no"?><svg xmlns="http://www.w3.org/2000/svg" xmlns:xlink="http://www.w3.org/1999/xlink" contentStyleType="text/css" height="556px" preserveAspectRatio="none" style="width:565px;height:556px;background:#F0FFFF;" version="1.1" viewBox="0 0 565 556" width="565px" zoomAndPan="magnify"><defs/><g><rect fill="#00BFFF" height="544.5902" style="stroke:#181818;stroke-width:0.5;" width="368.4063" x="71.9063" y="6"/><text fill="#000000" font-family="&quot;FuraCode Nerd Font&quot;" font-size="13" font-weight="bold" lengthAdjust="spacing" textLength="118.0938" x="197.0625" y="19.897">networkd-broker</text><rect fill="#FFFFFF" height="313.3541" style="stroke:#181818;stroke-width:1.0;" width="10" x="97.9063" y="192.5301"/><rect fill="#FFFFFF" height="158.5301" style="stroke:#181818;stroke-width:1.0;" width="10" x="102.9063" y="274.9421"/><rect fill="#FFFFFF" height="31.706" style="stroke:#181818;stroke-width:1.0;" width="10" x="219.3125" y="306.6481"/><rect fill="#FFFFFF" height="31.706" style="stroke:#181818;stroke-width:1.0;" width="10" x="302.3125" y="370.0602"/><rect fill="#FFFFFF" height="358.0602" style="stroke:#181818;stroke-width:1.0;" width="10" x="396.3125" y="147.8241"/><rect fill="#FFFFFF" height="31.706" style="stroke:#181818;stroke-width:1.0;" width="10" x="519.7188" y="465.1782"/><line style="stroke:#181818;stroke-width:0.5;stroke-dasharray:5.0,5.0;" x1="27" x2="27" y1="60.412" y2="514.8842"/><line style="stroke:#181818;stroke-width:0.5;stroke-dasharray:5.0,5.0;" x1="102.9063" x2="102.9063" y1="60.412" y2="514.8842"/><line style="stroke:#181818;stroke-width:0.5;stroke-dasharray:5.0,5.0;" x1="224.3125" x2="224.3125" y1="60.412" y2="514.8842"/><line style="stroke:#181818;stroke-width:0.5;stroke-dasharray:5.0,5.0;" x1="307.3125" x2="307.3125" y1="60.412" y2="514.8842"/><line style="stroke:#181818;stroke-width:0.5;stroke-dasharray:5.0,5.0;" x1="401.3125" x2="401.3125" y1="60.412" y2="514.8842"/><line style="stroke:#181818;stroke-width:0.5;stroke-dasharray:5.0,5.0;" x1="524.7188" x2="524.7188" y1="60.412" y2="514.8842"/><rect fill="#E2E2F0" height="31.706" rx="2.5" ry="2.5" style="stroke:#181818;stroke-width:0.5;" width="45" x="5" y="27.706"/><text fill="#000000" font-family="&quot;FuraCode Nerd Font&quot;" font-size="13" lengthAdjust="spacing" textLength="31" x="12" y="48.603">DBus</text><rect fill="#E2E2F0" height="31.706" rx="2.5" ry="2.5" style="stroke:#181818;stroke-width:0.5;" width="45" x="5" y="513.8842"/><text fill="#000000" font-family="&quot;FuraCode Nerd Font&quot;" font-size="13" lengthAdjust="spacing" textLength="31" x="12" y="534.7812">DBus</text><rect fill="#E2E2F0" height="31.706" rx="2.5" ry="2.5" style="stroke:#181818;stroke-width:0.5;" width="54" x="75.9063" y="27.706"/><text fill="#000000" font-family="&quot;FuraCode Nerd Font&quot;" font-size="13" lengthAdjust="spacing" textLength="40" x="82.9063" y="48.603">Broker</text><rect fill="#E2E2F0" height="31.706" rx="2.5" ry="2.5" style="stroke:#181818;stroke-width:0.5;" width="54" x="75.9063" y="513.8842"/><text fill="#000000" font-family="&quot;FuraCode Nerd Font&quot;" font-size="13" lengthAdjust="spacing" textLength="40" x="82.9063" y="534.7812">Broker</text><rect fill="#E2E2F0" height="31.706" rx="2.5" ry="2.5" style="stroke:#181818;stroke-width:0.5;" width="48" x="200.3125" y="27.706"/><text fill="#000000" font-family="&quot;FuraCode Nerd Font&quot;" font-size="13" lengthAdjust="spacing" textLength="34" x="207.3125" y="48.603">Script</text><rect fill="#E2E2F0" height="31.706" rx="2.5" ry="2.5" style="stroke:#181818;stroke-width:0.5;" width="48" x="200.3125" y="513.8842"/><text fill="#000000" font-family="&quot;FuraCode Nerd Font&quot;" font-size="13" lengthAdjust="spacing" textLength="34" x="207.3125" y="534.7812">Script</text><rect fill="#E2E2F0" height="31.706" rx="2.5" ry="2.5" style="stroke:#181818;stroke-width:0.5;" width="98" x="258.3125" y="27.706"/><text fill="#000000" font-family="&quot;FuraCode Nerd Font&quot;" font-size="13" lengthAdjust="spacing" textLength="84" x="265.3125" y="48.603">Environments</text><rect fill="#E2E2F0" height="31.706" rx="2.5" ry="2.5" style="stroke:#181818;stroke-width:0.5;" width="98" x="258.3125" y="513.8842"/><text fill="#000000" font-family="&quot;FuraCode Nerd Font&quot;" font-size="13" lengthAdjust="spacing" textLength="84" x="265.3125" y="534.7812">Environments</text><rect fill="#E2E2F0" height="31.706" rx="2.5" ry="2.5" style="stroke:#181818;stroke-width:0.5;" width="70" x="366.3125" y="27.706"/><text fill="#000000" font-family="&quot;FuraCode Nerd Font&quot;" font-size="13" lengthAdjust="spacing" textLength="56" x="373.3125" y="48.603">Launcher</text><rect fill="#E2E2F0" height="31.706" rx="2.5" ry="2.5" style="stroke:#181818;stroke-width:0.5;" width="70" x="366.3125" y="513.8842"/><text fill="#000000" font-family="&quot;FuraCode Nerd Font&quot;" font-size="13" lengthAdjust="spacing" textLength="56" x="373.3125" y="534.7812">Launcher</text><rect fill="#E2E2F0" height="31.706" rx="2.5" ry="2.5" style="stroke:#181818;stroke-width:0.5;" width="58" x="495.7188" y="27.706"/><text fill="#000000" font-family="&quot;FuraCode Nerd Font&quot;" font-size="13" lengthAdjust="spacing" textLength="44" x="502.7188" y="48.603">System</text><rect fill="#E2E2F0" height="31.706" rx="2.5" ry="2.5" style="stroke:#181818;stroke-width:0.5;" width="58" x="495.7188" y="513.8842"/><text fill="#000000" font-family="&quot;FuraCode Nerd Font&quot;" font-size="13" lengthAdjust="spacing" textLength="44" x="502.7188" y="534.7812">System</text><rect fill="#FFFFFF" height="313.3541" style="stroke:#181818;stroke-width:1.0;" width="10" x="97.9063" y="192.5301"/><rect fill="#FFFFFF" height="158.5301" style="stroke:#181818;stroke-width:1.0;" width="10" x="102.9063" y="274.9421"/><rect fill="#FFFFFF" height="31.706" style="stroke:#181818;stroke-width:1.0;" width="10" x="219.3125" y="306.6481"/><rect fill="#FFFFFF" height="31.706" style="stroke:#181818;stroke-width:1.0;" width="10" x="302.3125" y="370.0602"/><rect fill="#FFFFFF" height="358.0602" style="stroke:#181818;stroke-width:1.0;" width="10" x="396.3125" y="147.8241"/><rect fill="#FFFFFF" height="31.706" style="stroke:#181818;stroke-width:1.0;" width="10" x="519.7188" y="465.1782"/><rect fill="#EEEEEE" height="3" style="stroke:#EEEEEE;stroke-width:1.0;" width="558.7188" x="0" y="92.265"/><line style="stroke:#000000;stroke-width:1.0;" x1="0" x2="558.7188" y1="92.265" y2="92.265"/><line style="stroke:#000000;stroke-width:1.0;" x1="0" x2="558.7188" y1="95.265" y2="95.265"/><rect fill="#EEEEEE" height="25.706" style="stroke:#000000;stroke-width:2.0;" width="107.6875" x="225.5156" y="80.412"/><text fill="#000000" font-family="&quot;FuraCode Nerd Font&quot;" font-size="13" font-weight="bold" lengthAdjust="spacing" textLength="90.6875" x="231.5156" y="98.309">Initialization</text><line style="stroke:#181818;stroke-width:1.0;" x1="401.3125" x2="448.3125" y1="134.8241" y2="134.8241"/><line style="stroke:#181818;stroke-width:1.0;" x1="448.3125" x2="448.3125" y1="134.8241" y2="147.8241"/><line style="stroke:#181818;stroke-width:1.0;" x1="407.3125" x2="448.3125" y1="147.8241" y2="147.8241"/><polygon fill="#181818" points="417.3125,143.8241,407.3125,147.8241,417.3125,151.8241,413.3125,147.8241" style="stroke:#181818;stroke-width:1.0;"/><text fill="#000000" font-family="&quot;FuraCode Nerd Font&quot;" font-size="13" font-weight="bold" lengthAdjust="spacing" textLength="7.4063" x="413.3125" y="129.0151">1</text><text fill="#000000" font-family="&quot;FuraCode Nerd Font&quot;" font-size="13" lengthAdjust="spacing" textLength="25" x="424.7188" y="129.0151">recv</text><line style="stroke:#181818;stroke-width:1.0;" x1="102.9063" x2="149.9063" y1="179.5301" y2="179.5301"/><line style="stroke:#181818;stroke-width:1.0;" x1="149.9063" x2="149.9063" y1="179.5301" y2="192.5301"/><line style="stroke:#181818;stroke-width:1.0;" x1="108.9063" x2="149.9063" y1="192.5301" y2="192.5301"/><polygon fill="#181818" points="118.9063,188.5301,108.9063,192.5301,118.9063,196.5301,114.9063,192.5301" style="stroke:#181818;stroke-width:1.0;"/><text fill="#000000" font-family="&quot;FuraCode Nerd Font&quot;" font-size="13" font-weight="bold" lengthAdjust="spacing" textLength="7.4063" x="114.9063" y="173.7211">2</text><text fill="#000000" font-family="&quot;FuraCode Nerd Font&quot;" font-size="13" lengthAdjust="spacing" textLength="32" x="126.3125" y="173.7211">listen</text><rect fill="#EEEEEE" height="3" style="stroke:#EEEEEE;stroke-width:1.0;" width="558.7188" x="0" y="227.3831"/><line style="stroke:#000000;stroke-width:1.0;" x1="0" x2="558.7188" y1="227.3831" y2="227.3831"/><line style="stroke:#000000;stroke-width:1.0;" x1="0" x2="558.7188" y1="230.3831" y2="230.3831"/><rect fill="#EEEEEE" height="25.706" style="stroke:#000000;stroke-width:2.0;" width="116.2813" x="221.2188" y="215.5301"/><text fill="#000000" font-family="&quot;FuraCode Nerd Font&quot;" font-size="13" font-weight="bold" lengthAdjust="spacing" textLength="99.2813" x="227.2188" y="233.4271">Receive Signal</text><polygon fill="#181818" points="90.9063,270.9421,100.9063,274.9421,90.9063,278.9421,94.9063,274.9421" style="stroke:#181818;stroke-width:1.0;"/><line style="stroke:#181818;stroke-width:1.0;" x1="27.5" x2="96.9063" y1="274.9421" y2="274.9421"/><text fill="#000000" font-family="&quot;FuraCode Nerd Font&quot;" font-size="13" font-weight="bold" lengthAdjust="spacing" textLength="7.4063" x="34.5" y="269.1331">3</text><text fill="#000000" font-family="&quot;FuraCode Nerd Font&quot;" font-size="13" lengthAdjust="spacing" textLength="35" x="45.9063" y="269.1331">signal</text><polygon fill="#181818" points="207.3125,302.6481,217.3125,306.6481,207.3125,310.6481,211.3125,306.6481" style="stroke:#181818;stroke-width:1.0;"/><line style="stroke:#181818;stroke-width:1.0;" x1="112.9063" x2="213.3125" y1="306.6481" y2="306.6481"/><text fill="#000000" font-family="&quot;FuraCode Nerd Font&quot;" font-size="13" font-weight="bold" lengthAdjust="spacing" textLength="7.4063" x="119.9063" y="300.8391">4</text><text fill="#000000" font-family="&quot;FuraCode Nerd Font&quot;" font-size="13" lengthAdjust="spacing" textLength="76" x="131.3125" y="300.8391">get script list</text><polygon fill="#181818" points="123.9063,334.3541,113.9063,338.3541,123.9063,342.3541,119.9063,338.3541" style="stroke:#181818;stroke-width:1.0;"/><line style="stroke:#181818;stroke-width:1.0;stroke-dasharray:2.0,2.0;" x1="117.9063" x2="223.3125" y1="338.3541" y2="338.3541"/><text fill="#000000" font-family="&quot;FuraCode Nerd Font&quot;" font-size="13" font-weight="bold" lengthAdjust="spacing" textLength="7.4063" x="129.9063" y="332.5451">5</text><text fill="#000000" font-family="&quot;FuraCode Nerd Font&quot;" font-size="13" lengthAdjust="spacing" textLength="53" x="141.3125" y="332.5451">script list</text><polygon fill="#181818" points="290.3125,366.0602,300.3125,370.0602,290.3125,374.0602,294.3125,370.0602" style="stroke:#181818;stroke-width:1.0;"/><line style="stroke:#181818;stroke-width:1.0;" x1="112.9063" x2="296.3125" y1="370.0602" y2="370.0602"/><text fill="#000000" font-family="&quot;FuraCode Nerd Font&quot;" font-size="13" font-weight="bold" lengthAdjust="spacing" textLength="7.4063" x="119.9063" y="364.2512">6</text><text fill="#000000" font-family="&quot;FuraCode Nerd Font&quot;" font-size="13" lengthAdjust="spacing" textLength="55" x="131.3125" y="364.2512">fetch env</text><polygon fill="#181818" points="123.9063,397.7662,113.9063,401.7662,123.9063,405.7662,119.9063,401.7662" style="stroke:#181818;stroke-width:1.0;"/><line style="stroke:#181818;stroke-width:1.0;stroke-dasharray:2.0,2.0;" x1="117.9063" x2="306.3125" y1="401.7662" y2="401.7662"/><text fill="#000000" font-family="&quot;FuraCode Nerd Font&quot;" font-size="13" font-weight="bold" lengthAdjust="spacing" textLength="7.4063" x="129.9063" y="395.9572">7</text><text fill="#000000" font-family="&quot;FuraCode Nerd Font&quot;" font-size="13" lengthAdjust="spacing" textLength="22" x="141.3125" y="395.9572">env</text><polygon fill="#181818" points="384.3125,429.4722,394.3125,433.4722,384.3125,437.4722,388.3125,433.4722" style="stroke:#181818;stroke-width:1.0;"/><line style="stroke:#181818;stroke-width:1.0;" x1="107.9063" x2="390.3125" y1="433.4722" y2="433.4722"/><text fill="#000000" font-family="&quot;FuraCode Nerd Font&quot;" font-size="13" font-weight="bold" lengthAdjust="spacing" textLength="7.4063" x="114.9063" y="427.6632">8</text><text fill="#000000" font-family="&quot;FuraCode Nerd Font&quot;" font-size="13" lengthAdjust="spacing" textLength="142" x="126.3125" y="427.6632">send script list to queue</text><polygon fill="#181818" points="507.7188,461.1782,517.7188,465.1782,507.7188,469.1782,511.7188,465.1782" style="stroke:#181818;stroke-width:1.0;"/><line style="stroke:#181818;stroke-width:1.0;" x1="406.3125" x2="513.7188" y1="465.1782" y2="465.1782"/><text fill="#000000" font-family="&quot;FuraCode Nerd Font&quot;" font-size="13" font-weight="bold" lengthAdjust="spacing" textLength="7.4063" x="413.3125" y="459.3692">9</text><text fill="#000000" font-family="&quot;FuraCode Nerd Font&quot;" font-size="13" lengthAdjust="spacing" textLength="83" x="424.7188" y="459.3692">execute script</text><polygon fill="#181818" points="417.3125,492.8842,407.3125,496.8842,417.3125,500.8842,413.3125,496.8842" style="stroke:#181818;stroke-width:1.0;"/><line style="stroke:#181818;stroke-width:1.0;stroke-dasharray:2.0,2.0;" x1="411.3125" x2="523.7188" y1="496.8842" y2="496.8842"/><text fill="#000000" font-family="&quot;FuraCode Nerd Font&quot;" font-size="13" font-weight="bold" lengthAdjust="spacing" textLength="14.8125" x="423.3125" y="491.0752">10</text><text fill="#000000" font-family="&quot;FuraCode Nerd Font&quot;" font-size="13" lengthAdjust="spacing" textLength="31" x="442.125" y="491.0752">done</text><!--MD5=[d58871160ffc23a4bae4abba0f9a2ed3]
@startuml networkd-broker

skinparam defaultFontName "FuraCode Nerd Font"
skinparam defaultFontSize 13
skinparam defaultFontColor black
skinparam BackgroundColor Azure
skinparam BoxPadding 10
skinparam shadowing false

participant DBus
box "networkd-broker" #DeepSkyBlue
participant Broker
participant Script
participant Environments
participant Launcher
end box
participant System

autonumber

== Initialization ==
Launcher -> Launcher ++ : recv
Broker -> Broker ++ : listen

== Receive Signal ==
DBus -> Broker ++ : signal
Broker -> Script ++ : get script list
return script list
Broker -> Environments ++ : fetch env
return env
Broker -> Launcher - -: send script list to queue
Launcher -> System ++ : execute script
return done

@enduml

PlantUML version 1.2022.4(Sat Apr 09 20:29:17 ICT 2022)
(GPL source distribution)
Java Runtime: OpenJDK Runtime Environment
JVM: OpenJDK 64-Bit Server VM
Default Encoding: UTF-8
Language: en
Country: US
--></g></svg>