<?xml version="1.0" encoding="UTF-8" standalone="no"?><svg xmlns="http://www.w3.org/2000/svg" xmlns:xlink="http://www.w3.org/1999/xlink" contentStyleType="text/css" height="538px" preserveAspectRatio="none" style="width:787px;height:538px;background:#F0FFFF;" version="1.1" viewBox="0 0 787 538" width="787px" zoomAndPan="magnify"><defs/><g><rect fill="#00BFFF" height="526.8842" style="stroke:#181818;stroke-width:0.5;" width="506" x="134" y="6"/><text fill="#000000" font-family="&quot;Helvetica&quot;" font-size="13" font-weight="bold" lengthAdjust="spacing" textLength="112" x="331" y="19.897">networkd-broker</text><rect fill="#FFFFFF" height="295.6481" style="stroke:#181818;stroke-width:1.0;" width="10" x="180" y="192.5301"/><rect fill="#FFFFFF" height="95.118" style="stroke:#181818;stroke-width:1.0;" width="10" x="185" y="274.9421"/><rect fill="#FFFFFF" height="31.706" style="stroke:#181818;stroke-width:1.0;" width="10" x="446" y="306.6481"/><rect fill="#FFFFFF" height="340.3541" style="stroke:#181818;stroke-width:1.0;" width="10" x="576" y="147.8241"/><rect fill="#FFFFFF" height="31.706" style="stroke:#181818;stroke-width:1.0;" width="10" x="720" y="447.4722"/><line style="stroke:#181818;stroke-width:0.5;stroke-dasharray:5.0,5.0;" x1="49" x2="49" y1="60.412" y2="497.1782"/><line style="stroke:#181818;stroke-width:0.5;stroke-dasharray:5.0,5.0;" x1="185" x2="185" y1="60.412" y2="497.1782"/><line style="stroke:#181818;stroke-width:0.5;stroke-dasharray:5.0,5.0;" x1="451" x2="451" y1="60.412" y2="497.1782"/><line style="stroke:#181818;stroke-width:0.5;stroke-dasharray:5.0,5.0;" x1="581" x2="581" y1="60.412" y2="497.1782"/><line style="stroke:#181818;stroke-width:0.5;stroke-dasharray:5.0,5.0;" x1="724.5" x2="724.5" y1="60.412" y2="497.1782"/><rect fill="#E2E2F0" height="31.706" rx="2.5" ry="2.5" style="stroke:#181818;stroke-width:0.5;" width="48" x="25" y="27.706"/><text fill="#000000" font-family="&quot;Helvetica&quot;" font-size="13" font-weight="bold" lengthAdjust="spacing" textLength="34" x="32" y="48.603">DBus</text><rect fill="#E2E2F0" height="31.706" rx="2.5" ry="2.5" style="stroke:#181818;stroke-width:0.5;" width="48" x="25" y="496.1782"/><text fill="#000000" font-family="&quot;Helvetica&quot;" font-size="13" font-weight="bold" lengthAdjust="spacing" textLength="34" x="32" y="517.0752">DBus</text><rect fill="#E2E2F0" height="31.706" rx="2.5" ry="2.5" style="stroke:#181818;stroke-width:0.5;" width="54" x="158" y="27.706"/><text fill="#000000" font-family="&quot;Helvetica&quot;" font-size="13" lengthAdjust="spacing" textLength="40" x="165" y="48.603">Broker</text><rect fill="#E2E2F0" height="31.706" rx="2.5" ry="2.5" style="stroke:#181818;stroke-width:0.5;" width="54" x="158" y="496.1782"/><text fill="#000000" font-family="&quot;Helvetica&quot;" font-size="13" lengthAdjust="spacing" textLength="40" x="165" y="517.0752">Broker</text><rect fill="#E2E2F0" height="31.706" rx="2.5" ry="2.5" style="stroke:#181818;stroke-width:0.5;" width="90" x="406" y="27.706"/><text fill="#000000" font-family="&quot;Helvetica&quot;" font-size="13" lengthAdjust="spacing" textLength="76" x="413" y="48.603">ScriptBuilder</text><rect fill="#E2E2F0" height="31.706" rx="2.5" ry="2.5" style="stroke:#181818;stroke-width:0.5;" width="90" x="406" y="496.1782"/><text fill="#000000" font-family="&quot;Helvetica&quot;" font-size="13" lengthAdjust="spacing" textLength="76" x="413" y="517.0752">ScriptBuilder</text><rect fill="#E2E2F0" height="31.706" rx="2.5" ry="2.5" style="stroke:#181818;stroke-width:0.5;" width="70" x="546" y="27.706"/><text fill="#000000" font-family="&quot;Helvetica&quot;" font-size="13" lengthAdjust="spacing" textLength="56" x="553" y="48.603">Launcher</text><rect fill="#E2E2F0" height="31.706" rx="2.5" ry="2.5" style="stroke:#181818;stroke-width:0.5;" width="70" x="546" y="496.1782"/><text fill="#000000" font-family="&quot;Helvetica&quot;" font-size="13" lengthAdjust="spacing" textLength="56" x="553" y="517.0752">Launcher</text><rect fill="#E2E2F0" height="31.706" rx="2.5" ry="2.5" style="stroke:#181818;stroke-width:0.5;" width="61" x="694.5" y="27.706"/><text fill="#000000" font-family="&quot;Helvetica&quot;" font-size="13" font-weight="bold" lengthAdjust="spacing" textLength="47" x="701.5" y="48.603">System</text><rect fill="#E2E2F0" height="31.706" rx="2.5" ry="2.5" style="stroke:#181818;stroke-width:0.5;" width="61" x="694.5" y="496.1782"/><text fill="#000000" font-family="&quot;Helvetica&quot;" font-size="13" font-weight="bold" lengthAdjust="spacing" textLength="47" x="701.5" y="517.0752">System</text><rect fill="#FFFFFF" height="295.6481" style="stroke:#181818;stroke-width:1.0;" width="10" x="180" y="192.5301"/><rect fill="#FFFFFF" height="95.118" style="stroke:#181818;stroke-width:1.0;" width="10" x="185" y="274.9421"/><rect fill="#FFFFFF" height="31.706" style="stroke:#181818;stroke-width:1.0;" width="10" x="446" y="306.6481"/><rect fill="#FFFFFF" height="340.3541" style="stroke:#181818;stroke-width:1.0;" width="10" x="576" y="147.8241"/><rect fill="#FFFFFF" height="31.706" style="stroke:#181818;stroke-width:1.0;" width="10" x="720" y="447.4722"/><rect fill="#EEEEEE" height="3" style="stroke:#EEEEEE;stroke-width:1.0;" width="780.5" x="0" y="92.265"/><line style="stroke:#000000;stroke-width:1.0;" x1="0" x2="780.5" y1="92.265" y2="92.265"/><line style="stroke:#000000;stroke-width:1.0;" x1="0" x2="780.5" y1="95.265" y2="95.265"/><rect fill="#EEEEEE" height="25.706" style="stroke:#000000;stroke-width:2.0;" width="102" x="339.25" y="80.412"/><text fill="#000000" font-family="&quot;Helvetica&quot;" font-size="13" font-weight="bold" lengthAdjust="spacing" textLength="85" x="345.25" y="98.309">Initialization</text><line style="stroke:#181818;stroke-width:1.0;" x1="581" x2="628" y1="134.8241" y2="134.8241"/><line style="stroke:#181818;stroke-width:1.0;" x1="628" x2="628" y1="134.8241" y2="147.8241"/><line style="stroke:#181818;stroke-width:1.0;" x1="587" x2="628" y1="147.8241" y2="147.8241"/><line style="stroke:#181818;stroke-width:1.0;" x1="587" x2="597" y1="147.8241" y2="143.8241"/><line style="stroke:#181818;stroke-width:1.0;" x1="587" x2="597" y1="147.8241" y2="151.8241"/><text fill="#000000" font-family="&quot;Helvetica&quot;" font-size="13" font-weight="bold" lengthAdjust="spacing" textLength="7" x="593" y="129.0151">1</text><text fill="#000000" font-family="&quot;Helvetica&quot;" font-size="13" lengthAdjust="spacing" textLength="119" x="604" y="129.0151">receive script queue</text><line style="stroke:#181818;stroke-width:1.0;" x1="185" x2="232" y1="179.5301" y2="179.5301"/><line style="stroke:#181818;stroke-width:1.0;" x1="232" x2="232" y1="179.5301" y2="192.5301"/><line style="stroke:#181818;stroke-width:1.0;" x1="191" x2="232" y1="192.5301" y2="192.5301"/><line style="stroke:#181818;stroke-width:1.0;" x1="191" x2="201" y1="192.5301" y2="188.5301"/><line style="stroke:#181818;stroke-width:1.0;" x1="191" x2="201" y1="192.5301" y2="196.5301"/><text fill="#000000" font-family="&quot;Helvetica&quot;" font-size="13" font-weight="bold" lengthAdjust="spacing" textLength="7" x="197" y="173.7211">2</text><text fill="#000000" font-family="&quot;Helvetica&quot;" font-size="13" lengthAdjust="spacing" textLength="115" x="208" y="173.7211">listen to link events</text><rect fill="#EEEEEE" height="3" style="stroke:#EEEEEE;stroke-width:1.0;" width="780.5" x="0" y="227.3831"/><line style="stroke:#000000;stroke-width:1.0;" x1="0" x2="780.5" y1="227.3831" y2="227.3831"/><line style="stroke:#000000;stroke-width:1.0;" x1="0" x2="780.5" y1="230.3831" y2="230.3831"/><rect fill="#EEEEEE" height="25.706" style="stroke:#000000;stroke-width:2.0;" width="111" x="334.75" y="215.5301"/><text fill="#000000" font-family="&quot;Helvetica&quot;" font-size="13" font-weight="bold" lengthAdjust="spacing" textLength="94" x="340.75" y="233.4271">Receive Signal</text><polygon fill="#181818" points="173,270.9421,183,274.9421,173,278.9421,177,274.9421" style="stroke:#181818;stroke-width:1.0;"/><line style="stroke:#181818;stroke-width:1.0;" x1="49" x2="179" y1="274.9421" y2="274.9421"/><text fill="#000000" font-family="&quot;Helvetica&quot;" font-size="13" font-weight="bold" lengthAdjust="spacing" textLength="7" x="56" y="269.1331">3</text><text fill="#000000" font-family="&quot;Helvetica&quot;" font-size="13" lengthAdjust="spacing" textLength="96" x="67" y="269.1331">link event signal</text><polygon fill="#181818" points="434,302.6481,444,306.6481,434,310.6481,438,306.6481" style="stroke:#181818;stroke-width:1.0;"/><line style="stroke:#181818;stroke-width:1.0;" x1="195" x2="440" y1="306.6481" y2="306.6481"/><text fill="#000000" font-family="&quot;Helvetica&quot;" font-size="13" font-weight="bold" lengthAdjust="spacing" textLength="7" x="202" y="300.8391">4</text><text fill="#000000" font-family="&quot;Helvetica&quot;" font-size="13" lengthAdjust="spacing" textLength="221" x="213" y="300.8391">build scripts correspond to link event</text><polygon fill="#181818" points="206,334.3541,196,338.3541,206,342.3541,202,338.3541" style="stroke:#181818;stroke-width:1.0;"/><line style="stroke:#181818;stroke-width:1.0;stroke-dasharray:2.0,2.0;" x1="200" x2="450" y1="338.3541" y2="338.3541"/><text fill="#000000" font-family="&quot;Helvetica&quot;" font-size="13" font-weight="bold" lengthAdjust="spacing" textLength="7" x="212" y="332.5451">5</text><text fill="#000000" font-family="&quot;Helvetica&quot;" font-size="13" lengthAdjust="spacing" textLength="39" x="223" y="332.5451">scripts</text><polygon fill="#181818" points="564,366.0602,574,370.0602,564,374.0602,568,370.0602" style="stroke:#181818;stroke-width:1.0;"/><line style="stroke:#181818;stroke-width:1.0;" x1="190" x2="570" y1="370.0602" y2="370.0602"/><text fill="#000000" font-family="&quot;Helvetica&quot;" font-size="13" font-weight="bold" lengthAdjust="spacing" textLength="7" x="197" y="364.2512">6</text><text fill="#000000" font-family="&quot;Helvetica&quot;" font-size="13" lengthAdjust="spacing" textLength="128" x="208" y="364.2512">send scripts to queue</text><rect fill="#EEEEEE" height="3" style="stroke:#EEEEEE;stroke-width:1.0;" width="780.5" x="0" y="399.9132"/><line style="stroke:#000000;stroke-width:1.0;" x1="0" x2="780.5" y1="399.9132" y2="399.9132"/><line style="stroke:#000000;stroke-width:1.0;" x1="0" x2="780.5" y1="402.9132" y2="402.9132"/><rect fill="#EEEEEE" height="25.706" style="stroke:#000000;stroke-width:2.0;" width="158" x="311.25" y="388.0602"/><text fill="#000000" font-family="&quot;Helvetica&quot;" font-size="13" font-weight="bold" lengthAdjust="spacing" textLength="141" x="317.25" y="405.9572">Execute Script Queue</text><line style="stroke:#181818;stroke-width:1.0;" x1="718" x2="708" y1="447.4722" y2="443.4722"/><line style="stroke:#181818;stroke-width:1.0;" x1="718" x2="708" y1="447.4722" y2="451.4722"/><line style="stroke:#181818;stroke-width:1.0;" x1="586" x2="719" y1="447.4722" y2="447.4722"/><text fill="#000000" font-family="&quot;Helvetica&quot;" font-size="13" font-weight="bold" lengthAdjust="spacing" textLength="7" x="593" y="441.6632">7</text><text fill="#000000" font-family="&quot;Helvetica&quot;" font-size="13" lengthAdjust="spacing" textLength="83" x="604" y="441.6632">execute script</text><line style="stroke:#181818;stroke-width:1.0;" x1="587" x2="597" y1="479.1782" y2="475.1782"/><line style="stroke:#181818;stroke-width:1.0;" x1="587" x2="597" y1="479.1782" y2="483.1782"/><line style="stroke:#181818;stroke-width:1.0;stroke-dasharray:2.0,2.0;" x1="586" x2="724" y1="479.1782" y2="479.1782"/><text fill="#000000" font-family="&quot;Helvetica&quot;" font-size="13" font-weight="bold" lengthAdjust="spacing" textLength="7" x="603" y="473.3692">8</text><text fill="#000000" font-family="&quot;Helvetica&quot;" font-size="13" lengthAdjust="spacing" textLength="31" x="614" y="473.3692">done</text></g></svg>