<?xml version="1.0" encoding="UTF-8" standalone="no"?><svg xmlns="http://www.w3.org/2000/svg" xmlns:xlink="http://www.w3.org/1999/xlink" contentStyleType="text/css" height="599px" preserveAspectRatio="none" style="width:800px;height:599px;background:#F0FFFF;" version="1.1" viewBox="0 0 800 599" width="800px" zoomAndPan="magnify"><defs/><g><rect fill="#00BFFF" height="587.2963" style="stroke:#181818;stroke-width:0.5;" width="529" x="134" y="6"/><text fill="#000000" font-family="&quot;Helvetica&quot;" font-size="13" font-weight="bold" lengthAdjust="spacing" textLength="112" x="342.5" y="19.897">networkd-broker</text><rect fill="#FFFFFF" height="356.0602" style="stroke:#181818;stroke-width:1.0;" width="10" x="180" y="192.5301"/><rect fill="#FFFFFF" height="155.5301" style="stroke:#181818;stroke-width:1.0;" width="10" x="185" y="274.9421"/><rect fill="#FFFFFF" height="74.412" style="stroke:#181818;stroke-width:1.0;" width="10" x="369" y="324.3541"/><rect fill="#FFFFFF" height="400.7662" style="stroke:#181818;stroke-width:1.0;" width="10" x="599" y="147.8241"/><rect fill="#FFFFFF" height="31.706" style="stroke:#181818;stroke-width:1.0;" width="10" x="733" y="507.8842"/><line style="stroke:#181818;stroke-width:0.5;stroke-dasharray:5.0,5.0;" x1="49" x2="49" y1="60.412" y2="557.5902"/><line style="stroke:#181818;stroke-width:0.5;stroke-dasharray:5.0,5.0;" x1="185" x2="185" y1="60.412" y2="557.5902"/><line style="stroke:#181818;stroke-width:0.5;stroke-dasharray:5.0,5.0;" x1="374" x2="374" y1="60.412" y2="557.5902"/><line style="stroke:#181818;stroke-width:0.5;stroke-dasharray:5.0,5.0;" x1="495" x2="495" y1="363.7072" y2="557.5902"/><line style="stroke:#181818;stroke-width:0.5;stroke-dasharray:5.0,5.0;" x1="604" x2="604" y1="60.412" y2="557.5902"/><line style="stroke:#181818;stroke-width:0.5;stroke-dasharray:5.0,5.0;" x1="737.5" x2="737.5" y1="60.412" y2="557.5902"/><rect fill="#E2E2F0" height="31.706" rx="2.5" ry="2.5" style="stroke:#181818;stroke-width:0.5;" width="48" x="25" y="27.706"/><text fill="#000000" font-family="&quot;Helvetica&quot;" font-size="13" font-weight="bold" lengthAdjust="spacing" textLength="34" x="32" y="48.603">DBus</text><rect fill="#E2E2F0" height="31.706" rx="2.5" ry="2.5" style="stroke:#181818;stroke-width:0.5;" width="48" x="25" y="556.5902"/><text fill="#000000" font-family="&quot;Helvetica&quot;" font-size="13" font-weight="bold" lengthAdjust="spacing" textLength="34" x="32" y="577.4873">DBus</text><rect fill="#E2E2F0" height="31.706" rx="2.5" ry="2.5" style="stroke:#181818;stroke-width:0.5;" width="54" x="158" y="27.706"/><text fill="#000000" font-family="&quot;Helvetica&quot;" font-size="13" lengthAdjust="spacing" textLength="40" x="165" y="48.603">Broker</text><rect fill="#E2E2F0" height="31.706" rx="2.5" ry="2.5" style="stroke:#181818;stroke-width:0.5;" width="54" x="158" y="556.5902"/><text fill="#000000" font-family="&quot;Helvetica&quot;" font-size="13" lengthAdjust="spacing" textLength="40" x="165" y="577.4873">Broker</text><rect fill="#E2E2F0" height="31.706" rx="2.5" ry="2.5" style="stroke:#181818;stroke-width:0.5;" width="90" x="329" y="27.706"/><text fill="#000000" font-family="&quot;Helvetica&quot;" font-size="13" lengthAdjust="spacing" textLength="76" x="336" y="48.603">ScriptBuilder</text><rect fill="#E2E2F0" height="31.706" rx="2.5" ry="2.5" style="stroke:#181818;stroke-width:0.5;" width="90" x="329" y="556.5902"/><text fill="#000000" font-family="&quot;Helvetica&quot;" font-size="13" lengthAdjust="spacing" textLength="76" x="336" y="577.4873">ScriptBuilder</text><rect fill="#E2E2F0" height="31.706" rx="2.5" ry="2.5" style="stroke:#181818;stroke-width:0.5;" width="48" x="471" y="556.5902"/><text fill="#000000" font-family="&quot;Helvetica&quot;" font-size="13" lengthAdjust="spacing" textLength="34" x="478" y="577.4873">Script</text><rect fill="#E2E2F0" height="31.706" rx="2.5" ry="2.5" style="stroke:#181818;stroke-width:0.5;" width="70" x="569" y="27.706"/><text fill="#000000" font-family="&quot;Helvetica&quot;" font-size="13" lengthAdjust="spacing" textLength="56" x="576" y="48.603">Launcher</text><rect fill="#E2E2F0" height="31.706" rx="2.5" ry="2.5" style="stroke:#181818;stroke-width:0.5;" width="70" x="569" y="556.5902"/><text fill="#000000" font-family="&quot;Helvetica&quot;" font-size="13" lengthAdjust="spacing" textLength="56" x="576" y="577.4873">Launcher</text><rect fill="#E2E2F0" height="31.706" rx="2.5" ry="2.5" style="stroke:#181818;stroke-width:0.5;" width="61" x="707.5" y="27.706"/><text fill="#000000" font-family="&quot;Helvetica&quot;" font-size="13" font-weight="bold" lengthAdjust="spacing" textLength="47" x="714.5" y="48.603">System</text><rect fill="#E2E2F0" height="31.706" rx="2.5" ry="2.5" style="stroke:#181818;stroke-width:0.5;" width="61" x="707.5" y="556.5902"/><text fill="#000000" font-family="&quot;Helvetica&quot;" font-size="13" font-weight="bold" lengthAdjust="spacing" textLength="47" x="714.5" y="577.4873">System</text><rect fill="#FFFFFF" height="356.0602" style="stroke:#181818;stroke-width:1.0;" width="10" x="180" y="192.5301"/><rect fill="#FFFFFF" height="155.5301" style="stroke:#181818;stroke-width:1.0;" width="10" x="185" y="274.9421"/><rect fill="#FFFFFF" height="74.412" style="stroke:#181818;stroke-width:1.0;" width="10" x="369" y="324.3541"/><rect fill="#FFFFFF" height="400.7662" style="stroke:#181818;stroke-width:1.0;" width="10" x="599" y="147.8241"/><rect fill="#FFFFFF" height="31.706" style="stroke:#181818;stroke-width:1.0;" width="10" x="733" y="507.8842"/><rect fill="#EEEEEE" height="3" style="stroke:#EEEEEE;stroke-width:1.0;" width="793.5" x="0" y="92.265"/><line style="stroke:#000000;stroke-width:1.0;" x1="0" x2="793.5" y1="92.265" y2="92.265"/><line style="stroke:#000000;stroke-width:1.0;" x1="0" x2="793.5" y1="95.265" y2="95.265"/><rect fill="#EEEEEE" height="25.706" style="stroke:#000000;stroke-width:2.0;" width="102" x="345.75" y="80.412"/><text fill="#000000" font-family="&quot;Helvetica&quot;" font-size="13" font-weight="bold" lengthAdjust="spacing" textLength="85" x="351.75" y="98.309">Initialization</text><line style="stroke:#181818;stroke-width:1.0;" x1="604" x2="651" y1="134.8241" y2="134.8241"/><line style="stroke:#181818;stroke-width:1.0;" x1="651" x2="651" y1="134.8241" y2="147.8241"/><line style="stroke:#181818;stroke-width:1.0;" x1="610" x2="651" y1="147.8241" y2="147.8241"/><line style="stroke:#181818;stroke-width:1.0;" x1="610" x2="620" y1="147.8241" y2="143.8241"/><line style="stroke:#181818;stroke-width:1.0;" x1="610" x2="620" y1="147.8241" y2="151.8241"/><text fill="#000000" font-family="&quot;Helvetica&quot;" font-size="13" font-weight="bold" lengthAdjust="spacing" textLength="7" x="616" y="129.0151">1</text><text fill="#000000" font-family="&quot;Helvetica&quot;" font-size="13" lengthAdjust="spacing" textLength="109" x="627" y="129.0151">wait for new script</text><line style="stroke:#181818;stroke-width:1.0;" x1="185" x2="232" y1="179.5301" y2="179.5301"/><line style="stroke:#181818;stroke-width:1.0;" x1="232" x2="232" y1="179.5301" y2="192.5301"/><line style="stroke:#181818;stroke-width:1.0;" x1="191" x2="232" y1="192.5301" y2="192.5301"/><line style="stroke:#181818;stroke-width:1.0;" x1="191" x2="201" y1="192.5301" y2="188.5301"/><line style="stroke:#181818;stroke-width:1.0;" x1="191" x2="201" y1="192.5301" y2="196.5301"/><text fill="#000000" font-family="&quot;Helvetica&quot;" font-size="13" font-weight="bold" lengthAdjust="spacing" textLength="7" x="197" y="173.7211">2</text><text fill="#000000" font-family="&quot;Helvetica&quot;" font-size="13" lengthAdjust="spacing" textLength="115" x="208" y="173.7211">listen to link events</text><rect fill="#EEEEEE" height="3" style="stroke:#EEEEEE;stroke-width:1.0;" width="793.5" x="0" y="227.3831"/><line style="stroke:#000000;stroke-width:1.0;" x1="0" x2="793.5" y1="227.3831" y2="227.3831"/><line style="stroke:#000000;stroke-width:1.0;" x1="0" x2="793.5" y1="230.3831" y2="230.3831"/><rect fill="#EEEEEE" height="25.706" style="stroke:#000000;stroke-width:2.0;" width="111" x="341.25" y="215.5301"/><text fill="#000000" font-family="&quot;Helvetica&quot;" font-size="13" font-weight="bold" lengthAdjust="spacing" textLength="94" x="347.25" y="233.4271">Receive Signal</text><polygon fill="#181818" points="173,270.9421,183,274.9421,173,278.9421,177,274.9421" style="stroke:#181818;stroke-width:1.0;"/><line style="stroke:#181818;stroke-width:1.0;" x1="49" x2="179" y1="274.9421" y2="274.9421"/><text fill="#000000" font-family="&quot;Helvetica&quot;" font-size="13" font-weight="bold" lengthAdjust="spacing" textLength="7" x="56" y="269.1331">3</text><text fill="#000000" font-family="&quot;Helvetica&quot;" font-size="13" lengthAdjust="spacing" textLength="96" x="67" y="269.1331">link event signal</text><polygon fill="#181818" points="357,320.3541,367,324.3541,357,328.3541,361,324.3541" style="stroke:#181818;stroke-width:1.0;"/><line style="stroke:#181818;stroke-width:1.0;" x1="195" x2="363" y1="324.3541" y2="324.3541"/><text fill="#000000" font-family="&quot;Helvetica&quot;" font-size="13" font-weight="bold" lengthAdjust="spacing" textLength="7" x="202" y="309.6921">4</text><text fill="#000000" font-family="&quot;Helvetica&quot;" font-size="13" lengthAdjust="spacing" textLength="144" x="213" y="300.8391">build scripts correspond</text><text fill="#000000" font-family="&quot;Helvetica&quot;" font-size="13" lengthAdjust="spacing" textLength="74" x="213" y="318.5451">to link event</text><polygon fill="#181818" points="459,352.0602,469,356.0602,459,360.0602,463,356.0602" style="stroke:#181818;stroke-width:1.0;"/><line style="stroke:#181818;stroke-width:1.0;" x1="379" x2="465" y1="356.0602" y2="356.0602"/><text fill="#000000" font-family="&quot;Helvetica&quot;" font-size="13" font-weight="bold" lengthAdjust="spacing" textLength="7" x="386" y="350.2512">5</text><text fill="#000000" font-family="&quot;Helvetica&quot;" font-size="13" lengthAdjust="spacing" textLength="37" x="397" y="350.2512">create</text><rect fill="#E2E2F0" height="31.706" rx="2.5" ry="2.5" style="stroke:#181818;stroke-width:0.5;" width="48" x="471" y="332.3541"/><text fill="#000000" font-family="&quot;Helvetica&quot;" font-size="13" lengthAdjust="spacing" textLength="34" x="478" y="353.2512">Script</text><polygon fill="#181818" points="206,394.7662,196,398.7662,206,402.7662,202,398.7662" style="stroke:#181818;stroke-width:1.0;"/><line style="stroke:#181818;stroke-width:1.0;stroke-dasharray:2.0,2.0;" x1="200" x2="373" y1="398.7662" y2="398.7662"/><text fill="#000000" font-family="&quot;Helvetica&quot;" font-size="13" font-weight="bold" lengthAdjust="spacing" textLength="7" x="212" y="392.9572">6</text><text fill="#000000" font-family="&quot;Helvetica&quot;" font-size="13" lengthAdjust="spacing" textLength="39" x="223" y="392.9572">scripts</text><line style="stroke:#181818;stroke-width:1.0;" x1="597" x2="587" y1="430.4722" y2="426.4722"/><line style="stroke:#181818;stroke-width:1.0;" x1="597" x2="587" y1="430.4722" y2="434.4722"/><line style="stroke:#181818;stroke-width:1.0;" x1="190" x2="598" y1="430.4722" y2="430.4722"/><text fill="#000000" font-family="&quot;Helvetica&quot;" font-size="13" font-weight="bold" lengthAdjust="spacing" textLength="7" x="197" y="424.6632">7</text><text fill="#000000" font-family="&quot;Helvetica&quot;" font-size="13" lengthAdjust="spacing" textLength="128" x="208" y="424.6632">send scripts to queue</text><rect fill="#EEEEEE" height="3" style="stroke:#EEEEEE;stroke-width:1.0;" width="793.5" x="0" y="460.3252"/><line style="stroke:#000000;stroke-width:1.0;" x1="0" x2="793.5" y1="460.3252" y2="460.3252"/><line style="stroke:#000000;stroke-width:1.0;" x1="0" x2="793.5" y1="463.3252" y2="463.3252"/><rect fill="#EEEEEE" height="25.706" style="stroke:#000000;stroke-width:2.0;" width="158" x="317.75" y="448.4722"/><text fill="#000000" font-family="&quot;Helvetica&quot;" font-size="13" font-weight="bold" lengthAdjust="spacing" textLength="141" x="323.75" y="466.3692">Execute Script Queue</text><line style="stroke:#181818;stroke-width:1.0;" x1="731" x2="721" y1="507.8842" y2="503.8842"/><line style="stroke:#181818;stroke-width:1.0;" x1="731" x2="721" y1="507.8842" y2="511.8842"/><line style="stroke:#181818;stroke-width:1.0;" x1="609" x2="732" y1="507.8842" y2="507.8842"/><text fill="#000000" font-family="&quot;Helvetica&quot;" font-size="13" font-weight="bold" lengthAdjust="spacing" textLength="7" x="616" y="502.0752">8</text><text fill="#000000" font-family="&quot;Helvetica&quot;" font-size="13" lengthAdjust="spacing" textLength="83" x="627" y="502.0752">execute script</text><line style="stroke:#181818;stroke-width:1.0;" x1="610" x2="620" y1="539.5902" y2="535.5902"/><line style="stroke:#181818;stroke-width:1.0;" x1="610" x2="620" y1="539.5902" y2="543.5902"/><line style="stroke:#181818;stroke-width:1.0;stroke-dasharray:2.0,2.0;" x1="609" x2="737" y1="539.5902" y2="539.5902"/><text fill="#000000" font-family="&quot;Helvetica&quot;" font-size="13" font-weight="bold" lengthAdjust="spacing" textLength="7" x="626" y="533.7812">9</text><text fill="#000000" font-family="&quot;Helvetica&quot;" font-size="13" lengthAdjust="spacing" textLength="31" x="637" y="533.7812">done</text></g></svg>